<?xml version="1.0" standalone="no"?><!DOCTYPE svg PUBLIC "-//W3C//DTD SVG 1.1//EN" "http://www.w3.org/Graphics/SVG/1.1/DTD/svg11.dtd"><svg t="1564539382935" class="icon" viewBox="0 0 1024 1024" version="1.1" xmlns="http://www.w3.org/2000/svg" p-id="2104" xmlns:xlink="http://www.w3.org/1999/xlink" width="200" height="200"><defs><style type="text/css"></style></defs><path d="M574.995319 115.596672l267.7524 5.360255c32.590996 0.652249 58.855442 26.916695 59.507691 59.507691l5.360255 267.7524a60.735469 60.735469 0 0 1-17.777151 44.162383L437.064034 945.153881c-23.718526 23.718526-62.173727 23.719197-85.892923 0l-273.112655-273.112655c-23.718526-23.718526-23.718526-62.174398 0-85.892923L530.832936 133.373823a60.735469 60.735469 0 0 1 44.162383-17.777151z m-443.253786 524.234708l251.639424 251.639424c5.929967 5.929967 15.543935 5.929296 21.473231 0L835.964862 460.36013a15.183867 15.183867 0 0 0 4.446301-10.606434l2.164099-253.803523c0.071801-8.385968-6.668109-15.241297-15.053406-15.312427-0.086564-0.000671-0.173128-0.001342-0.259021 0L567.246167 182.854857l-435.503963 435.503963c-5.929296 5.929296-5.929967 15.543264 0 21.473231zM442.180702 580.917558c-59.296985-59.296985-59.296985-155.435324 0-214.732308s155.435324-59.296985 214.732309 0 59.296985 155.435324 0 214.732308-155.435324 59.296985-214.732309 0z m42.946462-42.946462c35.578459 35.578459 93.260926 35.578459 128.839385 0s35.578459-93.260926 0-128.839385-93.260926-35.578459-128.839385 0-35.578459 93.260926 0 128.839385z" p-id="2105"></path></svg>